HIERARCHY
ROOT Hips
{
	OFFSET -0.001795 -0.223333 0.028219
	CHANNELS 6 Xposition Yposition Zposition Zrotation Yrotation Xrotation 
	JOINT LeftUpLeg
	{
		OFFSET 0.069520 -0.091406 -0.006815
		CHANNELS 3 Zrotation Yrotation Xrotation
		JOINT LeftLeg
		{
			OFFSET 0.034277 -0.375199 -0.004496
			CHANNELS 3 Zrotation Yrotation Xrotation
			JOINT LeftFoot
			{
				OFFSET -0.013596 -0.397961 -0.043693
				CHANNELS 3 Zrotation Yrotation Xrotation
				JOINT LeftToe
				{
					OFFSET 0.026358 -0.055791 0.119288
					CHANNELS 3 Zrotation Yrotation Xrotation
					End Site
					{
						OFFSET 0.000000 0.000000 0.000000
					}
				}
			}
		}
	}
	JOINT RightUpLeg
	{
		OFFSET -0.067670 -0.090522 -0.004320
		CHANNELS 3 Zrotation Yrotation Xrotation
		JOINT RightLeg
		{
			OFFSET -0.038290 -0.382569 -0.008850
			CHANNELS 3 Zrotation Yrotation Xrotation
			JOINT RightFoot
			{
				OFFSET 0.015774 -0.398415 -0.042312
				CHANNELS 3 Zrotation Yrotation Xrotation
				JOINT RightToe
				{
					OFFSET -0.025372 -0.048144 0.123348
					CHANNELS 3 Zrotation Yrotation Xrotation
					End Site
					{
						OFFSET 0.000000 0.000000 0.000000
					}
				}
			}
		}
	}
	JOINT Spine
	{
		OFFSET -0.002533 0.108963 -0.026696
		CHANNELS 3 Zrotation Yrotation Xrotation
		JOINT Spine1
		{
			OFFSET 0.005487 0.135180 0.001092
			CHANNELS 3 Zrotation Yrotation Xrotation
			JOINT Spine2
			{
				OFFSET 0.001457 0.052922 0.025425
				CHANNELS 3 Zrotation Yrotation Xrotation
				JOINT Neck
				{
					OFFSET -0.002778 0.213870 -0.042857
					CHANNELS 3 Zrotation Yrotation Xrotation
					JOINT Head
					{
						OFFSET 0.005152 0.064970 0.051349
						CHANNELS 3 Zrotation Yrotation Xrotation
						End Site
						{
							OFFSET 0.000000 0.000000 0.000000
						}
					}
				}
				JOINT LeftShoulder
				{
					OFFSET 0.078845 0.121749 -0.034090
					CHANNELS 3 Zrotation Yrotation Xrotation
					JOINT LeftArm
					{
						OFFSET 0.090977 0.030469 -0.008868
						CHANNELS 3 Zrotation Yrotation Xrotation
						JOINT LeftForeArm
						{
							OFFSET 0.259612 -0.012772 -0.027456
							CHANNELS 3 Zrotation Yrotation Xrotation
							JOINT LeftHand
							{
								OFFSET 0.249234 0.008986 -0.001171
								CHANNELS 3 Zrotation Yrotation Xrotation
								End Site
								{
									OFFSET 0.000000 0.000000 0.000000
								}
							}
						}
					}
				}
				JOINT RightShoulder
				{
					OFFSET -0.081759 0.118833 -0.038615
					CHANNELS 3 Zrotation Yrotation Xrotation
					JOINT RightArm
					{
						OFFSET -0.096012 0.032551 -0.009143
						CHANNELS 3 Zrotation Yrotation Xrotation
						JOINT RightForeArm
						{
							OFFSET -0.253742 -0.013329 -0.021401
							CHANNELS 3 Zrotation Yrotation Xrotation
							JOINT RightHand
							{
								OFFSET -0.255298 0.007772 -0.005559
								CHANNELS 3 Zrotation Yrotation Xrotation
								End Site
								{
									OFFSET 0.000000 0.000000 0.000000
								}
							}
						}
					}
				}
			}
		}
	}
}
MOTION
Frames: 12
Frame Time: 0.050000
0.011469 0.954044 0.002897 -0.773648 -2.804589 9.883729 5.065837 -0.706355 -12.465146 0.231017 -0.177797 4.623263 0.182398 3.160695 7.535431 0.000000 0.000000 0.000000 -1.844122 0.947347 -10.009007 -6.085830 0.286530 -3.318854 -1.015581 -8.805681 17.281395 0.000000 0.000000 0.000000 5.528080 0.171787 -4.362911 -1.038436 0.516617 -3.596808 -6.944924 8.302945 -0.410604 13.824917 -7.442310 -11.803752 0.000000 0.000000 0.000000 -11.383682 -11.186204 2.459747 -46.809733 -28.488964 6.078969 -83.943637 -52.558784 46.925813 0.000000 0.000000 0.000000 10.330404 -0.349345 -0.091371 59.863180 13.045495 1.968066 100.978482 65.415061 83.364118 0.000000 0.000000 0.000000 
0.011339 0.954561 0.003647 -0.761413 -2.844042 9.765743 4.756615 -0.733544 -12.559788 0.512244 -0.243418 5.303112 0.227469 3.100542 7.102169 0.000000 0.000000 0.000000 -1.748068 0.943048 -9.928244 -5.921135 0.291831 -3.134012 -1.154196 -8.935059 16.844767 0.000000 0.000000 0.000000 5.534477 0.151543 -4.125237 -0.933143 0.477073 -4.244085 -7.019623 8.836039 -0.298601 13.889998 -7.560225 -11.469785 0.000000 0.000000 0.000000 -11.045931 -11.020494 2.338302 -46.598058 -27.958717 5.800611 -84.295023 -54.000744 48.371669 0.000000 0.000000 0.000000 10.399594 -0.732730 -0.202774 60.007401 12.355489 1.635971 103.464916 64.810009 85.657203 0.000000 0.000000 0.000000 
0.011224 0.954675 0.005174 -0.827106 -2.718649 9.861360 4.548884 -0.745706 -12.390523 0.710409 -0.264582 5.004374 0.102564 2.940357 7.278872 0.000000 0.000000 0.000000 -1.524148 0.951373 -9.940192 -6.010408 0.328589 -2.812832 -1.215249 -8.882638 16.305210 0.000000 0.000000 0.000000 5.747972 0.188705 -4.546379 -1.041078 0.522820 -4.158392 -6.929832 8.903321 -0.367625 13.692843 -7.412003 -11.493212 0.000000 0.000000 0.000000 -10.844494 -10.007933 1.902895 -46.514778 -27.486080 5.589946 -86.111424 -54.687100 50.347520 0.000000 0.000000 0.000000 10.007090 -1.465614 -0.540113 59.668792 11.396955 1.161164 106.489671 63.725747 87.768261 0.000000 0.000000 0.000000 
0.011233 0.954483 0.007390 -0.775762 -2.646885 9.750204 4.163414 -0.749685 -11.833402 0.989612 -0.286374 4.438071 0.055376 2.824119 7.166383 0.000000 0.000000 0.000000 -1.649069 0.900836 -9.428183 -5.786650 0.300864 -2.945527 -1.119803 -8.533904 15.672752 0.000000 0.000000 0.000000 5.624289 0.207138 -4.727102 -0.797350 0.422905 -4.357978 -6.740409 8.976904 -0.282122 13.237288 -7.140049 -11.364799 0.000000 0.000000 0.000000 -10.434777 -8.922521 1.481879 -46.187999 -26.361704 5.071180 -90.574942 -55.773802 54.945822 0.000000 0.000000 0.000000 9.228632 -3.000942 -1.242457 58.527172 9.502041 0.187445 111.961315 61.439330 91.369289 0.000000 0.000000 0.000000 
0.011255 0.954212 0.010034 -0.852867 -2.592830 9.744316 3.822991 -0.739932 -11.142236 1.376768 -0.296997 3.324328 0.063174 2.911146 7.367679 0.000000 0.000000 0.000000 -1.479715 0.879201 -9.134468 -5.781168 0.308695 -2.858434 -1.029036 -8.171647 14.958611 0.000000 0.000000 0.000000 5.754260 0.254475 -5.225423 -0.752309 0.403593 -4.293355 -6.463250 8.385350 -0.169631 12.484145 -6.814294 -10.841261 0.000000 0.000000 0.000000 -10.387790 -6.995512 0.772748 -45.142035 -24.776227 4.323939 -97.552316 -55.840419 61.292357 0.000000 0.000000 0.000000 8.103534 -3.980840 -1.722003 56.778074 7.791850 -0.698333 117.802843 59.391010 95.466222 0.000000 0.000000 0.000000 
0.011388 0.953874 0.012707 -0.767053 -2.613057 9.561770 3.314651 -0.729753 -10.374460 1.654952 -0.298564 2.505038 0.117094 2.951414 7.191570 0.000000 0.000000 0.000000 -1.613605 0.830680 -8.637535 -5.591761 0.283729 -2.985263 -1.032029 -8.037932 14.464736 0.000000 0.000000 0.000000 5.770114 0.299738 -5.661510 -0.777026 0.414728 -4.353722 -6.112396 8.135536 0.106217 11.495100 -6.173741 -10.844669 0.000000 0.000000 0.000000 -9.406697 -5.283782 0.261760 -44.449779 -23.890366 3.836172 -105.670384 -56.392705 69.714533 0.000000 0.000000 0.000000 6.355657 -5.671075 -2.405510 54.362349 5.919327 -1.554040 125.915585 56.710487 102.388953 0.000000 0.000000 0.000000 
0.011545 0.953759 0.015217 -0.767878 -2.347139 9.602885 3.176815 -0.720774 -10.022923 1.875651 -0.287828 1.687094 -0.077226 2.668242 7.338313 0.000000 0.000000 0.000000 -1.671672 0.793952 -8.241255 -5.538619 0.262647 -3.202318 -0.956680 -7.732533 14.026359 0.000000 0.000000 0.000000 5.990129 0.351295 -6.199706 -0.813434 0.437240 -4.747198 -6.073733 7.408880 0.624121 10.843983 -5.953634 -10.176731 0.000000 0.000000 0.000000 -7.701656 -3.258307 -0.199629 -43.808896 -23.791013 3.598670 -117.014779 -56.529918 82.262689 0.000000 0.000000 0.000000 3.996081 -7.029718 -2.832794 51.555338 5.082467 -1.887210 134.170329 54.598116 111.061083 0.000000 0.000000 0.000000 
0.011892 0.953634 0.017553 -0.812955 -2.023957 9.500388 3.189136 -0.691011 -9.482815 1.881533 -0.248665 0.885976 -0.376671 2.297083 7.756610 0.000000 0.000000 0.000000 -1.849781 0.733891 -7.596156 -5.376062 0.223565 -3.553772 -1.031470 -7.906661 14.368448 0.000000 0.000000 0.000000 6.035061 0.408914 -6.803404 -0.634820 0.366145 -4.710907 -5.880926 6.773971 0.758461 9.935713 -5.515592 -9.552783 0.000000 0.000000 0.000000 -6.217112 -1.215958 -0.686510 -43.471692 -24.217219 3.631453 -128.011658 -56.286029 95.670044 0.000000 0.000000 0.000000 1.892624 -8.510368 -3.227795 48.773534 4.984453 -1.859560 142.839381 52.238744 121.506523 0.000000 0.000000 0.000000 
0.012427 0.953630 0.020069 -0.812698 -1.812418 9.483180 3.004702 -0.686567 -9.224857 2.235927 -0.270729 0.533984 -0.510105 1.953881 7.421456 0.000000 0.000000 0.000000 -2.044058 0.697605 -7.202264 -5.425745 0.208287 -3.787612 -0.879170 -7.529536 14.138032 0.000000 0.000000 0.000000 6.029569 0.446905 -7.218328 -0.642421 0.383188 -5.471038 -5.700838 6.191992 1.468683 9.543871 -5.507222 -8.648947 0.000000 0.000000 0.000000 -4.675527 0.422952 -0.978611 -43.454469 -24.951601 3.772718 -138.667366 -55.878651 110.466954 0.000000 0.000000 0.000000 -0.439981 -9.588331 -3.362840 47.062093 6.104738 -1.424974 150.161985 51.053661 132.696565 0.000000 0.000000 0.000000 
0.013184 0.953544 0.022808 -0.688625 -1.805975 9.367885 2.786662 -0.660654 -8.656206 2.286037 -0.242401 -0.106045 -0.886783 1.410011 7.805025 0.000000 0.000000 0.000000 -2.251075 0.654216 -6.708590 -5.487598 0.189726 -4.053971 -0.823235 -7.534912 14.534659 0.000000 0.000000 0.000000 5.966454 0.526148 -8.026486 -0.579131 0.352499 -5.150497 -5.550447 5.915905 1.439379 8.811950 -5.172175 -7.925678 0.000000 0.000000 0.000000 -2.834433 2.412062 -1.329386 -44.395248 -26.313385 4.306657 -146.429010 -55.537057 122.331286 0.000000 0.000000 0.000000 -2.645813 -10.871660 -3.511182 45.995075 7.428268 -0.876891 156.745988 50.173649 144.235109 0.000000 0.000000 0.000000 
0.013973 0.953759 0.025699 -0.693204 -2.151964 9.243737 2.644512 -0.636422 -8.230461 2.577331 -0.260519 -0.367730 -0.832141 1.428049 7.670932 0.000000 0.000000 0.000000 -2.396615 0.608910 -6.154607 -5.519404 0.142523 -4.597259 -0.488922 -7.136863 15.047440 0.000000 0.000000 0.000000 5.970942 0.587603 -8.573733 -0.706665 0.404976 -5.453031 -5.502650 6.089866 1.411036 8.904732 -5.418057 -7.137448 0.000000 0.000000 0.000000 -1.172180 3.597110 -1.402498 -45.299547 -27.478072 4.789528 -151.647057 -55.016705 130.518680 0.000000 0.000000 0.000000 -3.833086 -11.273569 -3.477935 45.671184 9.079702 -0.233373 162.007789 50.073798 154.910364 0.000000 0.000000 0.000000 
0.014645 0.953677 0.028283 -0.672419 -2.557867 8.903541 2.592411 -0.604568 -7.772743 2.459989 -0.245768 -0.449390 -0.849543 1.413618 7.816652 0.000000 0.000000 0.000000 -2.522197 0.555700 -5.499099 -5.742169 0.106901 -5.129035 -0.338857 -7.072787 15.513524 0.000000 0.000000 0.000000 6.109397 0.689460 -9.413653 -1.067671 0.543050 -4.831416 -5.629058 6.386203 0.921580 8.623720 -5.330589 -6.566621 0.000000 0.000000 0.000000 0.194930 4.733784 -1.484014 -46.540799 -28.766828 5.426753 -153.469630 -54.807713 133.291572 0.000000 0.000000 0.000000 -4.469881 -11.499069 -3.461634 46.580530 10.646939 0.458143 164.867733 49.850051 160.848483 0.000000 0.000000 0.000000 
